<svg xmlns="http://www.w3.org/2000/svg" width="40" height="40" viewBox="0 0 40 40">
  <path id="Path_11" data-name="Path 11" d="M22,16a6,6,0,1,0,6,6A6,6,0,0,0,22,16Zm0-4A10,10,0,1,1,12,22,10,10,0,0,1,22,12Zm13-.5A2.5,2.5,0,1,1,32.5,9,2.5,2.5,0,0,1,35,11.5ZM22,6c-4.949,0-5.756.013-8.057.116a10.881,10.881,0,0,0-3.6.664A5.8,5.8,0,0,0,8.186,8.185,5.779,5.779,0,0,0,6.78,10.348a10.838,10.838,0,0,0-.663,3.595C6.013,16.15,6,16.922,6,22c0,4.949.013,5.756.116,8.057a10.889,10.889,0,0,0,.663,3.595,6.221,6.221,0,0,0,3.563,3.567,10.889,10.889,0,0,0,3.6.666c2.208.1,2.98.116,8.058.116,4.949,0,5.756-.013,8.057-.116a10.921,10.921,0,0,0,3.595-.663,6.22,6.22,0,0,0,3.567-3.565,10.883,10.883,0,0,0,.665-3.6c.1-2.208.116-2.98.116-8.058,0-4.949-.013-5.756-.116-8.057a10.92,10.92,0,0,0-.664-3.6,5.824,5.824,0,0,0-1.406-2.161,5.767,5.767,0,0,0-2.163-1.406,10.847,10.847,0,0,0-3.595-.663C27.851,6.012,27.079,6,22,6Zm0-4c5.433,0,6.112.02,8.245.12a14.714,14.714,0,0,1,4.855.93,9.745,9.745,0,0,1,3.543,2.307A9.816,9.816,0,0,1,40.951,8.9a14.794,14.794,0,0,1,.93,4.855c.1,2.133.12,2.812.12,8.245s-.02,6.112-.12,8.245a14.761,14.761,0,0,1-.93,4.855,10.222,10.222,0,0,1-5.85,5.85,14.8,14.8,0,0,1-4.855.93c-2.133.095-2.812.12-8.245.12s-6.112-.02-8.245-.12A14.766,14.766,0,0,1,8.9,40.95a10.221,10.221,0,0,1-5.85-5.85,14.756,14.756,0,0,1-.93-4.855C2.026,28.112,2,27.433,2,22s.02-6.112.12-8.245A14.7,14.7,0,0,1,3.051,8.9,9.759,9.759,0,0,1,5.358,5.357,9.794,9.794,0,0,1,8.9,3.05a14.748,14.748,0,0,1,4.855-.93C15.889,2.025,16.568,2,22,2Z" transform="translate(-2.001 -2)" fill="#f8f5f5"/>
</svg>
