<svg id="Group_3" data-name="Group 3" xmlns="http://www.w3.org/2000/svg" xmlns:xlink="http://www.w3.org/1999/xlink" width="260" height="171.275" viewBox="0 0 260 171.275">
  <defs>
    <clipPath id="clip-path">
      <rect id="Rectangle_42" data-name="Rectangle 42" width="260" height="171.276" fill="#fff"/>
    </clipPath>
  </defs>
  <g id="Group_2" data-name="Group 2" clip-path="url(#clip-path)">
    <path id="Path_2" data-name="Path 2" d="M145.22,39.175a18.79,18.79,0,1,1-18.79-18.79,18.79,18.79,0,0,1,18.79,18.79" transform="translate(6.908 1.308)" fill="#fff"/>
    <path id="Path_3" data-name="Path 3" d="M166.853,48.227a8.066,8.066,0,0,0-6.637,3.478l-16.54-5.515-1.359,4.074L158.8,55.758c-.013.183-.028.365-.028.551a8.083,8.083,0,1,0,8.082-8.082" transform="translate(9.133 2.964)" fill="#fff"/>
    <path id="Path_4" data-name="Path 4" d="M119.649,79.92l3.823-21.287-4.227-.759L115.5,78.709c-.291-.023-.583-.045-.88-.045a10.709,10.709,0,1,0,5.026,1.256" transform="translate(6.669 3.714)" fill="#fff"/>
    <path id="Path_5" data-name="Path 5" d="M113.987,23.873,100.963,12.1a8.077,8.077,0,1,0-3.053,3.029l13.2,11.928Z" transform="translate(5.511)" fill="#fff"/>
    <path id="Path_6" data-name="Path 6" d="M160.405,1.9A8.066,8.066,0,0,0,152.8,12.692L137.813,24.178l2.614,3.407,14.83-11.369A8.083,8.083,0,1,0,160.405,1.9" transform="translate(8.844 0.122)" fill="#fff"/>
    <path id="Path_7" data-name="Path 7" d="M109.868,45.543l-1.1-3.471L86.96,48.991a11.7,11.7,0,1,0,.712,3.993c0-.132-.015-.261-.019-.392Z" transform="translate(4.121 2.648)" fill="#fff"/>
    <text id="ACTIVE_UNITY" data-name="ACTIVE UNITY" transform="translate(0 144.204)" fill="#fff" font-size="41" font-family="BalooBhaijaan-Regular, Baloo Bhaijaan"><tspan x="0" y="0" letter-spacing="-0.01em">A</tspan><tspan y="0" letter-spacing="0.013em">C</tspan><tspan y="0">TIVE UNI</tspan><tspan y="0" letter-spacing="0.021em">T</tspan><tspan y="0">Y</tspan></text>
    <path id="Path_8" data-name="Path 8" d="M3.178,150.958H.426v-.586H6.584v.586H3.822v7.61H3.178Zm7.522-.586h.633v3.571h4.916v-3.571h.632v8.2h-.632v-4.04H11.333v4.04H10.7ZM27,154.54H22.823v3.443H27.4l-.094.585H22.189v-8.2h5.023v.586h-4.39v3H27Zm17.036,1.838a2.992,2.992,0,0,1-3.079,2.284c-2.353,0-3.595-1.874-3.595-4.18,0-2.212,1.218-4.227,3.606-4.227a2.871,2.871,0,0,1,3.079,2.354h-.632a2.373,2.373,0,0,0-2.482-1.768c-2.037,0-2.891,1.861-2.891,3.629s.843,3.606,2.938,3.606a2.4,2.4,0,0,0,2.423-1.7Zm5.3-6.006v8.2H48.7v-8.2Zm6.95.586H53.535v-.586h6.158v.586H56.93v7.61h-.645Zm10.075,7.61v-3.08a.4.4,0,0,0-.047-.187l-2.926-4.929h.737c.819,1.394,2.248,3.817,2.6,4.426.351-.609,1.791-3.008,2.67-4.426h.7l-3.056,4.976a.358.358,0,0,0-.035.176v3.045Zm13.712-8.2h4.964v.586H80.7v3.09h4.063v.585H80.7v3.934h-.632Zm9.957,4.367v3.829h-.644v-8.2h2.938c1.616,0,2.471.867,2.471,2.155a1.855,1.855,0,0,1-1.533,1.92c.843.2,1.4.749,1.4,2.142v.316a5.47,5.47,0,0,0,.105,1.663h-.644a5.482,5.482,0,0,1-.117-1.71v-.211c0-1.346-.4-1.908-1.968-1.908Zm0-.585h1.978c1.441,0,2.108-.538,2.108-1.615,0-1.007-.656-1.58-1.933-1.58H90.029Zm16.49.258c0,2.236-1.2,4.274-3.724,4.274-2.306,0-3.652-1.862-3.652-4.215,0-2.318,1.3-4.215,3.734-4.215C105.126,150.255,106.52,152.024,106.52,154.412Zm-6.7.023c0,1.885,1.042,3.665,3.008,3.665,2.119,0,3.008-1.734,3.008-3.677,0-1.908-1.007-3.582-2.985-3.582C100.748,150.841,99.823,152.586,99.823,154.435Zm18.491.363c0-1.6.012-3.137.047-3.957h-.035c-.328,1.1-1.991,5.139-3.033,7.727h-.62c-.784-2-2.505-6.5-2.88-7.739h-.023c.059.936.082,2.845.082,4.249v3.489h-.632v-8.2h.948c1.124,2.81,2.54,6.486,2.845,7.411h.023c.187-.6,1.826-4.682,2.974-7.411h.936v8.2h-.632Zm11.766-4.426H132.8a3.7,3.7,0,0,1,3.8,4.028c0,2.447-1.522,4.168-3.816,4.168H130.08Zm.632,7.611h1.979c2.166,0,3.231-1.523,3.231-3.548,0-1.8-.96-3.477-3.231-3.477h-1.979Zm11.222-7.611v8.2H141.3v-8.2Zm5.311,0h4.964v.586h-4.332v3.09h4.063v.585h-4.063v3.934h-.632Zm9.314,0h4.964v.586h-4.332v3.09h4.063v.585h-4.063v3.934h-.632Zm14.126,4.168H166.5v3.443h4.578l-.094.585h-5.117v-8.2h5.023v.586H166.5v3h4.18Zm5.555.2v3.829H175.6v-8.2h2.938c1.615,0,2.47.867,2.47,2.155a1.855,1.855,0,0,1-1.533,1.92c.843.2,1.4.749,1.4,2.142v.316a5.471,5.471,0,0,0,.105,1.663h-.644a5.482,5.482,0,0,1-.117-1.71v-.211c0-1.346-.4-1.908-1.967-1.908Zm0-.585h1.978c1.44,0,2.107-.538,2.107-1.615,0-1.007-.656-1.58-1.931-1.58h-2.154Zm14.476.386h-4.18v3.443h4.578l-.094.585H185.9v-8.2h5.023v.586h-4.391v3h4.18Zm4.911,4.028v-8.2h.936c1.276,1.968,4.273,6.545,4.789,7.435h.012c-.07-1.183-.059-2.389-.059-3.724v-3.712h.644v8.2h-.866c-1.218-1.9-4.262-6.662-4.847-7.563h-.012c.059,1.077.047,2.271.047,3.758v3.805Zm13.269-7.61h-2.752v-.586H212.3v.586h-2.763v7.61H208.9Zm15.526,7.61-3.044-8.2h.679l1.592,4.285c.457,1.241.972,2.61,1.147,3.3h.023c.176-.61.737-2.05,1.194-3.255l1.652-4.332h.667l-3.162,8.2Zm8.833-8.2v8.2h-.632v-8.2Zm10.123,4.168H239.2v3.443h4.577l-.094.585h-5.115v-8.2h5.022v.586H239.2v3h4.179Zm6.422,4.028-2.272-8.2h.656c.55,1.968,1.792,6.5,1.979,7.459h.012c.152-.762,1.5-5.292,2.072-7.459h.7c.538,2,1.85,6.814,1.978,7.447h.012c.258-1.16,1.627-5.491,2.19-7.447h.644l-2.506,8.2h-.726c-.538-1.933-1.814-6.673-1.955-7.376h-.012c-.211,1.065-1.475,5.338-2.06,7.376Z" transform="translate(0.027 9.642)" fill="#fff"/>
  </g>
</svg>
