<?xml version="1.0" encoding="utf-8"?>
<!-- Generator: Adobe Illustrator 28.2.0, SVG Export Plug-In . SVG Version: 6.00 Build 0)  -->
<svg version="1.1" id="Group_3" xmlns="http://www.w3.org/2000/svg" xmlns:xlink="http://www.w3.org/1999/xlink" x="0px" y="0px"
	 viewBox="0 0 260 171.3" style="enable-background:new 0 0 260 171.3;" xml:space="preserve">
<style type="text/css">
	.st0{fill:#FFFFFF;}
	.st1{enable-background:new    ;}
</style>
<g>
	<g id="Group_2">
		<path id="Path_2" class="st0" d="M152.1,40.5c0,10.4-8.4,18.8-18.8,18.8s-18.8-8.4-18.8-18.8s8.4-18.8,18.8-18.8l0,0
			C143.7,21.7,152.1,30.1,152.1,40.5"/>
		<path id="Path_3" class="st0" d="M176,51.2c-2.6,0-5.1,1.3-6.6,3.5l-16.5-5.5l-1.4,4.1l16.5,5.5c0,0.2,0,0.4,0,0.6
			c0,4.5,3.6,8.1,8.1,8.1s8.1-3.6,8.1-8.1S180.5,51.2,176,51.2C176,51.2,176,51.2,176,51.2"/>
		<path id="Path_4" class="st0" d="M126.3,83.6l3.8-21.3l-4.2-0.8l-3.7,20.8c-0.3,0-0.6,0-0.9,0c-5.9,0-10.7,4.8-10.7,10.7
			c0,5.9,4.8,10.7,10.7,10.7c5.9,0,10.7-4.8,10.7-10.7C132,89.1,129.8,85.5,126.3,83.6"/>
		<path id="Path_5" class="st0" d="M119.5,23.9l-13-11.8c2.2-3.9,0.9-8.8-3-11s-8.8-0.9-11,3s-0.9,8.8,3,11c2.5,1.4,5.5,1.4,8,0
			l13.2,11.9L119.5,23.9z"/>
		<path id="Path_6" class="st0" d="M169.2,2c-4.5,0-8.1,3.6-8.1,8.1c0,0.9,0.2,1.9,0.5,2.7l-15,11.5l2.6,3.4l14.8-11.4
			c3.4,2.8,8.5,2.4,11.4-1.1s2.4-8.5-1.1-11.4C172.9,2.7,171.1,2,169.2,2"/>
		<path id="Path_7" class="st0" d="M114,48.2l-1.1-3.5l-21.8,6.9c-2.2-6.1-8.9-9.2-15-7s-9.2,8.9-7,15s8.9,9.2,15,7
			c4.6-1.7,7.7-6.1,7.7-11c0-0.1,0-0.3,0-0.4L114,48.2z"/>
		<g class="st1">
			<path class="st0" d="M8,120.1c0.5-0.3,1.2-0.5,2.1-0.8s1.9-0.4,2.8-0.4c1.4,0,2.6,0.2,3.6,0.6c1.1,0.4,1.7,1,2,1.9
				c0.5,1.4,1,3.1,1.6,5c0.6,1.9,1.1,3.8,1.7,5.8c0.6,2,1.1,4,1.7,5.9c0.5,2,1,3.7,1.4,5.2c-0.3,0.4-0.8,0.7-1.5,0.9
				c-0.7,0.2-1.4,0.3-2.3,0.3c-0.7,0-1.2-0.1-1.7-0.2c-0.5-0.1-0.8-0.3-1.1-0.5c-0.3-0.2-0.5-0.5-0.7-0.9c-0.2-0.4-0.3-0.8-0.5-1.2
				l-0.7-2.8H9.1c-0.2,0.8-0.4,1.7-0.7,2.5c-0.2,0.9-0.4,1.7-0.7,2.5c-0.4,0.1-0.8,0.3-1.2,0.3c-0.4,0.1-0.9,0.1-1.5,0.1
				c-1.4,0-2.4-0.2-3.1-0.7s-1-1.1-1-2c0-0.4,0.1-0.8,0.2-1.1c0.1-0.4,0.2-0.8,0.4-1.4c0.2-0.7,0.5-1.7,0.8-2.7
				c0.3-1.1,0.7-2.3,1.1-3.5c0.4-1.3,0.8-2.6,1.3-3.9c0.5-1.3,0.9-2.6,1.3-3.8c0.4-1.2,0.8-2.2,1.1-3.2C7.5,121.3,7.8,120.6,8,120.1
				z M12.9,125.4c-0.4,1.1-0.8,2.4-1.3,3.8c-0.5,1.4-0.9,2.8-1.3,4.3h5.1c-0.4-1.5-0.8-2.9-1.2-4.3c-0.4-1.4-0.8-2.7-1.1-3.8H12.9z"
				/>
		</g>
		<g class="st1">
			<path class="st0" d="M40.6,124.4c-2.1,0-3.7,0.6-4.8,1.9c-1.1,1.3-1.7,3.1-1.7,5.5c0,2.4,0.6,4.2,1.9,5.5c1.2,1.3,2.9,1.9,5,1.9
				c1.1,0,2.1-0.2,2.8-0.5c0.8-0.3,1.5-0.6,2.2-1c0.5,0.4,0.8,0.8,1.1,1.4c0.3,0.5,0.4,1.2,0.4,1.9c0,1.1-0.6,2.1-1.9,2.8
				c-1.2,0.8-3.1,1.2-5.7,1.2c-1.8,0-3.6-0.3-5.2-0.8c-1.6-0.5-3-1.3-4.2-2.4c-1.2-1.1-2.2-2.4-2.8-4.1c-0.7-1.7-1-3.6-1-5.9
				c0-2.1,0.3-4,1-5.6c0.7-1.6,1.6-3,2.7-4.1c1.2-1.1,2.5-2,4.1-2.5c1.6-0.6,3.2-0.9,5-0.9c2.5,0,4.5,0.4,5.8,1.2
				c1.4,0.8,2.1,1.9,2.1,3.2c0,0.7-0.2,1.3-0.5,1.8c-0.4,0.5-0.8,0.9-1.2,1.2c-0.7-0.5-1.5-0.9-2.3-1.2
				C42.6,124.5,41.7,124.4,40.6,124.4z"/>
		</g>
		<g class="st1">
			<path class="st0" d="M50.8,125.1c-0.2-0.3-0.4-0.7-0.5-1.2c-0.2-0.5-0.2-1.1-0.2-1.6c0-1.1,0.2-1.8,0.7-2.3
				c0.5-0.5,1.1-0.7,1.9-0.7h17.9c0.2,0.3,0.4,0.7,0.5,1.2c0.2,0.5,0.2,1.1,0.2,1.6c0,1.1-0.2,1.8-0.7,2.3c-0.5,0.5-1.1,0.7-1.9,0.7
				h-4.6V144c-0.3,0.1-0.8,0.2-1.4,0.2c-0.6,0.1-1.3,0.1-1.9,0.1c-0.6,0-1.2,0-1.7-0.1c-0.5-0.1-0.9-0.3-1.2-0.5
				c-0.3-0.2-0.6-0.6-0.7-1s-0.2-1-0.2-1.7v-15.9H50.8z"/>
			<path class="st0" d="M81.9,144c-0.3,0.1-0.8,0.2-1.4,0.2c-0.6,0.1-1.3,0.1-1.9,0.1c-0.6,0-1.2,0-1.7-0.1
				c-0.5-0.1-0.9-0.3-1.2-0.5s-0.6-0.6-0.7-1s-0.2-1-0.2-1.7v-21.6c0.3-0.1,0.8-0.1,1.4-0.2c0.7-0.1,1.3-0.1,1.9-0.1
				c0.6,0,1.2,0,1.7,0.1c0.5,0.1,0.9,0.3,1.2,0.5c0.3,0.2,0.6,0.6,0.7,1c0.2,0.4,0.2,1,0.2,1.7V144z"/>
			<path class="st0" d="M102.1,143.4c-0.4,0.3-1,0.6-1.8,0.9c-0.8,0.2-1.7,0.4-2.6,0.4c-1.1,0-2.1-0.2-3-0.5s-1.4-0.8-1.7-1.4
				c-0.3-0.6-0.7-1.4-1.1-2.4c-0.4-1-0.9-2.1-1.4-3.3c-0.5-1.2-1-2.5-1.5-3.9c-0.5-1.4-1-2.8-1.5-4.2c-0.5-1.4-0.9-2.8-1.3-4.2
				c-0.4-1.4-0.8-2.7-1.1-3.9c0.4-0.4,0.9-0.7,1.7-1c0.7-0.3,1.5-0.5,2.3-0.5c1,0,1.8,0.2,2.5,0.6c0.6,0.4,1.1,1.2,1.4,2.4
				c0.7,2.7,1.5,5.2,2.2,7.7c0.8,2.4,1.5,5,2.4,7.6h0.2c0.7-2.6,1.5-5.4,2.3-8.4c0.8-3,1.5-6.1,2.2-9.1c0.5-0.2,1-0.5,1.6-0.6
				c0.6-0.2,1.2-0.2,1.9-0.2c1,0,1.9,0.2,2.6,0.7c0.7,0.5,1.1,1.2,1.1,2.2c0,0.6-0.1,1.5-0.4,2.6c-0.3,1.1-0.7,2.4-1.1,3.9
				c-0.5,1.4-1,2.9-1.5,4.5c-0.6,1.6-1.1,3-1.7,4.4c-0.6,1.4-1.1,2.6-1.6,3.6C102.8,142.2,102.4,143,102.1,143.4z"/>
			<path class="st0" d="M113.2,123.2c0-1.2,0.3-2.1,1-2.8c0.7-0.7,1.6-1,2.8-1h13.5c0.2,0.3,0.4,0.7,0.5,1.2c0.1,0.5,0.2,1,0.2,1.6
				c0,1-0.2,1.8-0.7,2.2c-0.5,0.4-1,0.7-1.8,0.7h-8.7v3.8h9.2c0.2,0.3,0.4,0.7,0.5,1.2c0.1,0.5,0.2,1,0.2,1.5c0,1-0.2,1.8-0.7,2.2
				c-0.4,0.4-1,0.7-1.8,0.7h-7.5v4.3h10.5c0.2,0.3,0.4,0.7,0.5,1.2c0.1,0.5,0.2,1,0.2,1.6c0,1-0.2,1.8-0.7,2.2
				c-0.5,0.5-1,0.7-1.8,0.7h-12c-1.2,0-2.1-0.3-2.8-1c-0.7-0.7-1-1.6-1-2.8V123.2z"/>
			<path class="st0" d="M165.9,135c0,1.5-0.3,2.8-0.8,4c-0.5,1.2-1.2,2.3-2.2,3.1c-1,0.9-2.1,1.5-3.5,2c-1.4,0.5-2.9,0.7-4.6,0.7
				s-3.3-0.2-4.6-0.7c-1.4-0.5-2.5-1.1-3.5-2c-1-0.9-1.7-1.9-2.2-3.1c-0.5-1.2-0.8-2.6-0.8-4v-15.7c0.3-0.1,0.8-0.1,1.4-0.2
				c0.7-0.1,1.3-0.1,1.9-0.1c0.6,0,1.2,0,1.7,0.1s0.9,0.3,1.2,0.5c0.3,0.2,0.6,0.6,0.7,1c0.2,0.4,0.2,1,0.2,1.7v12.5
				c0,1.3,0.4,2.3,1.1,3.1c0.7,0.7,1.7,1.1,2.8,1.1c1.2,0,2.1-0.4,2.8-1.1c0.7-0.7,1.1-1.8,1.1-3.1v-15.5c0.3-0.1,0.8-0.1,1.4-0.2
				s1.3-0.1,1.9-0.1c0.6,0,1.2,0,1.7,0.1s0.9,0.3,1.2,0.5c0.3,0.2,0.6,0.6,0.7,1c0.2,0.4,0.2,1,0.2,1.7V135z"/>
			<path class="st0" d="M193.6,143.3c-0.4,0.4-0.9,0.7-1.7,0.9c-0.7,0.2-1.6,0.3-2.6,0.3c-1,0-2-0.2-2.9-0.5c-0.9-0.3-1.6-1-2.2-2.2
				l-4.1-8.3c-0.4-0.8-0.8-1.6-1.1-2.4c-0.3-0.8-0.7-1.6-1.1-2.6l-0.2,0c0.1,1.5,0.2,3,0.2,4.5c0,1.5,0,3,0,4.5v6.4
				c-0.3,0.1-0.8,0.2-1.4,0.2s-1.2,0.1-1.8,0.1c-0.6,0-1.1,0-1.6-0.1s-0.8-0.2-1.1-0.5s-0.5-0.6-0.7-1s-0.2-1-0.2-1.7v-20.5
				c0.4-0.5,1-1,1.8-1.2c0.8-0.3,1.6-0.4,2.5-0.4c1,0,2,0.2,2.9,0.5s1.6,1,2.2,2.2l4.1,8.3c0.4,0.8,0.8,1.6,1.1,2.4
				c0.3,0.8,0.7,1.6,1.1,2.6l0.2,0c-0.1-1.5-0.2-3-0.2-4.4c0-1.5,0-3,0-4.4v-6.6c0.3-0.1,0.8-0.2,1.4-0.2c0.6-0.1,1.2-0.1,1.8-0.1
				c1.2,0,2.1,0.2,2.7,0.6c0.6,0.4,0.9,1.3,0.9,2.6V143.3z"/>
			<path class="st0" d="M206.1,144c-0.3,0.1-0.8,0.2-1.4,0.2s-1.3,0.1-1.9,0.1s-1.2,0-1.7-0.1c-0.5-0.1-0.9-0.3-1.2-0.5
				s-0.6-0.6-0.7-1s-0.2-1-0.2-1.7v-21.6c0.3-0.1,0.8-0.1,1.4-0.2s1.3-0.1,1.9-0.1c0.6,0,1.2,0,1.7,0.1c0.5,0.1,0.9,0.3,1.2,0.5
				c0.3,0.2,0.6,0.6,0.7,1c0.2,0.4,0.2,1,0.2,1.7V144z"/>
		</g>
		<g class="st1">
			<path class="st0" d="M210.3,125.1c-0.2-0.3-0.4-0.7-0.5-1.2c-0.2-0.5-0.2-1.1-0.2-1.6c0-1.1,0.2-1.8,0.7-2.3
				c0.5-0.5,1.1-0.7,1.9-0.7H230c0.2,0.3,0.4,0.7,0.5,1.2c0.2,0.5,0.2,1.1,0.2,1.6c0,1.1-0.2,1.8-0.7,2.3s-1.1,0.7-1.9,0.7h-4.6V144
				c-0.3,0.1-0.8,0.2-1.4,0.2c-0.6,0.1-1.3,0.1-1.9,0.1c-0.6,0-1.2,0-1.7-0.1s-0.9-0.3-1.2-0.5s-0.6-0.6-0.7-1s-0.2-1-0.2-1.7v-15.9
				H210.3z"/>
		</g>
		<g class="st1">
			<path class="st0" d="M248.1,144c-0.3,0.1-0.8,0.2-1.4,0.2c-0.6,0.1-1.2,0.1-1.8,0.1c-1.3,0-2.2-0.2-2.8-0.6
				c-0.6-0.4-0.9-1.3-0.9-2.7v-5.5c-0.7-1-1.4-2.1-2.2-3.4c-0.8-1.2-1.6-2.5-2.3-3.8c-0.8-1.3-1.5-2.5-2.1-3.8
				c-0.7-1.2-1.2-2.4-1.6-3.4c0.4-0.5,0.8-0.9,1.5-1.4c0.6-0.4,1.4-0.6,2.3-0.6c1.1,0,1.9,0.2,2.6,0.7c0.7,0.4,1.3,1.3,1.9,2.5
				l3.4,6.8h0.2c0.4-0.8,0.7-1.6,1-2.3c0.3-0.7,0.6-1.4,0.8-2.1c0.3-0.7,0.6-1.4,0.9-2.2c0.3-0.8,0.6-1.6,1-2.6
				c0.5-0.2,1-0.4,1.6-0.6s1.2-0.2,1.7-0.2c1,0,1.8,0.3,2.4,0.8c0.7,0.5,1,1.3,1,2.3c0,0.3-0.1,0.7-0.2,1.2s-0.5,1.2-0.9,2.1
				c-0.5,0.9-1.2,2.2-2.2,3.8c-0.9,1.6-2.2,3.7-3.8,6.3V144z"/>
		</g>
		<path id="Path_8" class="st0" d="M3.2,160.6H0.5V160h6.2v0.6H3.8v7.6H3.2V160.6z M10.7,160h0.6v3.6h4.9V160h0.6v8.2h-0.6v-4h-4.9
			v4h-0.6V160z M27,164.2h-4.2v3.4h4.6l-0.1,0.6h-5.1V160h5v0.6h-4.4v3H27V164.2z M44.1,166c-0.3,1.4-1.6,2.4-3.1,2.3
			c-2.4,0-3.6-1.9-3.6-4.2c0-2.2,1.2-4.2,3.6-4.2c1.5-0.1,2.8,0.9,3.1,2.4h-0.6c-0.3-1.1-1.3-1.9-2.5-1.8c-2,0-2.9,1.9-2.9,3.6
			s0.8,3.6,2.9,3.6c1.1,0.1,2.1-0.6,2.4-1.7L44.1,166z M49.4,160v8.2h-0.6V160H49.4z M56.3,160.6h-2.8V160h6.2v0.6H57v7.6h-0.6
			L56.3,160.6z M66.4,168.2v-3.1c0-0.1,0-0.1,0-0.2l-2.9-4.9h0.7c0.8,1.4,2.2,3.8,2.6,4.4c0.4-0.6,1.8-3,2.7-4.4h0.7l-3.1,5
			c0,0.1,0,0.1,0,0.2v3L66.4,168.2z M80.1,160h5v0.6h-4.3v3.1h4.1v0.6h-4.1v3.9h-0.6L80.1,160z M90.1,164.4v3.8h-0.6V160h2.9
			c1.6,0,2.5,0.9,2.5,2.2c0,0.9-0.6,1.8-1.5,1.9c0.8,0.2,1.4,0.7,1.4,2.1v0.3c-0.1,0.6,0,1.1,0.1,1.7h-0.6c-0.1-0.6-0.2-1.1-0.1-1.7
			v-0.2c0-1.3-0.4-1.9-2-1.9L90.1,164.4z M90.1,163.8h2c1.4,0,2.1-0.5,2.1-1.6c0-1-0.7-1.6-1.9-1.6h-2.2L90.1,163.8z M106.5,164
			c0,2.2-1.2,4.3-3.7,4.3c-2.3,0-3.7-1.9-3.7-4.2c0-2.3,1.3-4.2,3.7-4.2C105.2,159.9,106.5,161.7,106.5,164L106.5,164z M99.8,164.1
			c0,1.9,1,3.7,3,3.7c2.1,0,3-1.7,3-3.7c0-1.9-1-3.6-3-3.6C100.8,160.5,99.8,162.2,99.8,164.1L99.8,164.1z M118.3,164.4
			c0-1.6,0-3.1,0-4h0c-0.3,1.1-2,5.1-3,7.7h-0.6c-0.8-2-2.5-6.5-2.9-7.7h0c0.1,0.9,0.1,2.8,0.1,4.2v3.5h-0.6V160h0.9
			c1.1,2.8,2.5,6.5,2.8,7.4h0c0.2-0.6,1.8-4.7,3-7.4h0.9v8.2h-0.6L118.3,164.4z M130.1,160h2.7c2-0.1,3.7,1.5,3.8,3.6
			c0,0.1,0,0.3,0,0.4c0,2.4-1.5,4.2-3.8,4.2h-2.7L130.1,160z M130.7,167.6h2c2.2,0,3.2-1.5,3.2-3.5c0-1.8-1-3.5-3.2-3.5h-2V167.6z
			 M142,160v8.2h-0.6V160H142z M147.3,160h5v0.6h-4.3v3.1h4.1v0.6h-4.1v3.9h-0.6V160z M156.6,160h5v0.6h-4.3v3.1h4.1v0.6h-4.1v3.9
			h-0.6V160z M170.7,164.2h-4.2v3.4h4.6l-0.1,0.6h-5.1V160h5v0.6h-4.4v3h4.2L170.7,164.2z M176.3,164.4v3.8h-0.6V160h2.9
			c1.6,0,2.5,0.9,2.5,2.2c0,0.9-0.6,1.8-1.5,1.9c0.8,0.2,1.4,0.7,1.4,2.1v0.3c-0.1,0.6,0,1.1,0.1,1.7h-0.6c-0.1-0.6-0.2-1.1-0.1-1.7
			v-0.2c0-1.3-0.4-1.9-2-1.9L176.3,164.4z M176.3,163.8h2c1.4,0,2.1-0.5,2.1-1.6c0-1-0.7-1.6-1.9-1.6h-2.2L176.3,163.8z
			 M190.7,164.2h-4.2v3.4h4.6l-0.1,0.6h-5.1V160h5v0.6h-4.4v3h4.2L190.7,164.2z M195.7,168.2V160h0.9c1.3,2,4.3,6.5,4.8,7.4h0
			c-0.1-1.2-0.1-2.4-0.1-3.7V160h0.6v8.2h-0.9c-1.2-1.9-4.3-6.7-4.8-7.6h0c0.1,1.1,0,2.3,0,3.8v3.8L195.7,168.2z M208.9,160.6h-2.8
			V160h6.2v0.6h-2.8v7.6h-0.6L208.9,160.6z M224.4,168.2l-3-8.2h0.7l1.6,4.3c0.5,1.2,1,2.6,1.1,3.3h0c0.2-0.6,0.7-2.1,1.2-3.3
			l1.7-4.3h0.7l-3.2,8.2L224.4,168.2z M233.3,160v8.2h-0.6V160H233.3z M243.4,164.2h-4.2v3.4h4.6l-0.1,0.6h-5.1V160h5v0.6h-4.4v3
			h4.2L243.4,164.2z M249.8,168.2l-2.3-8.2h0.7c0.6,2,1.8,6.5,2,7.5h0c0.2-0.8,1.5-5.3,2.1-7.5h0.7c0.5,2,1.9,6.8,2,7.4h0
			c0.3-1.2,1.6-5.5,2.2-7.4h0.6l-2.5,8.2h-0.7c-0.5-1.9-1.8-6.7-2-7.4h0c-0.2,1.1-1.5,5.3-2.1,7.4H249.8z"/>
	</g>
</g>
</svg>
