<?xml version="1.0" encoding="utf-8"?>
<!-- Generator: Adobe Illustrator 28.2.0, SVG Export Plug-In . SVG Version: 6.00 Build 0)  -->
<svg version="1.1" id="Layer_1" xmlns="http://www.w3.org/2000/svg" xmlns:xlink="http://www.w3.org/1999/xlink" x="0px" y="0px"
	 viewBox="0 0 293 229" style="enable-background:new 0 0 293 229;" xml:space="preserve">
<style type="text/css">
	.st0{fill:#FFFFFF;}
</style>
<g>
	<circle class="st0" cx="89" cy="69.5" r="20"/>
	<path class="st0" d="M134.4,80.8c-2.9,0-5.5,1.5-7.1,3.7l-17.6-5.9l-1.4,4.3l17.5,5.8c0,0.2,0,0.4,0,0.6c0,4.7,3.8,8.6,8.6,8.6
		s8.6-3.8,8.6-8.6C143,84.7,139.2,80.8,134.4,80.8z"/>
	<path class="st0" d="M81.6,115.3l4.1-22.6l-4.5-0.8l-4,22.2c-0.3,0-0.6,0-0.9,0c-6.3,0-11.4,5.1-11.4,11.4s5.1,11.4,11.4,11.4
		s11.4-5.1,11.4-11.4C87.6,121,85.2,117.3,81.6,115.3z"/>
	<path class="st0" d="M74.3,51.8L60.5,39.3c0.7-1.3,1.1-2.7,1.1-4.3c0-4.7-3.8-8.6-8.6-8.6s-8.6,3.8-8.6,8.6s3.8,8.6,8.6,8.6
		c1.5,0,3-0.4,4.2-1.1l14,12.7L74.3,51.8z"/>
	<path class="st0" d="M127.2,28.6c-4.7,0-8.6,3.8-8.6,8.6c0,1,0.2,2,0.5,2.9l-15.9,12.2l2.8,3.6l15.8-12.1c1.5,1.2,3.4,2,5.5,2
		c4.7,0,8.6-3.8,8.6-8.6S132,28.6,127.2,28.6z"/>
	<path class="st0" d="M68.5,77.7L67.3,74l-23.2,7.4c-1.7-4.8-6.3-8.2-11.7-8.2c-6.9,0-12.5,5.6-12.5,12.5c0,6.9,5.6,12.5,12.5,12.5
		s12.5-5.6,12.5-12.5c0-0.1,0-0.3,0-0.4L68.5,77.7z"/>
</g>
<g>
	<path class="st0" d="M26.6,152.1c0.4-0.3,1.1-0.5,2-0.7c0.9-0.2,1.8-0.4,2.7-0.4c1.3,0,2.5,0.2,3.5,0.6c1,0.4,1.6,1,1.9,1.8
		c0.5,1.4,1,2.9,1.5,4.7c0.5,1.8,1.1,3.7,1.6,5.6c0.5,1.9,1.1,3.8,1.6,5.7c0.5,1.9,1,3.5,1.4,4.9c-0.3,0.4-0.8,0.7-1.4,0.9
		c-0.6,0.2-1.4,0.3-2.2,0.3c-0.6,0-1.2-0.1-1.6-0.2c-0.4-0.1-0.8-0.3-1.1-0.5c-0.3-0.2-0.5-0.5-0.7-0.8c-0.2-0.3-0.3-0.7-0.4-1.2
		l-0.7-2.7h-7.1c-0.2,0.8-0.4,1.6-0.6,2.4c-0.2,0.8-0.4,1.6-0.6,2.4c-0.4,0.1-0.8,0.2-1.2,0.3c-0.4,0.1-0.9,0.1-1.5,0.1
		c-1.3,0-2.3-0.2-3-0.7c-0.6-0.5-1-1.1-1-1.9c0-0.4,0.1-0.7,0.2-1.1c0.1-0.4,0.2-0.8,0.4-1.3c0.2-0.7,0.4-1.6,0.8-2.6
		c0.3-1,0.7-2.2,1.1-3.4s0.8-2.5,1.3-3.7c0.4-1.3,0.9-2.5,1.3-3.6c0.4-1.1,0.7-2.1,1.1-3C26.2,153.2,26.4,152.6,26.6,152.1z
		 M31.3,157.1c-0.4,1.1-0.8,2.3-1.2,3.7c-0.5,1.3-0.9,2.7-1.2,4.1h4.9c-0.4-1.4-0.7-2.8-1.1-4.1c-0.4-1.3-0.7-2.5-1-3.6H31.3z"/>
	<path class="st0" d="M57.8,156.2c-2,0-3.5,0.6-4.6,1.8c-1.1,1.2-1.6,3-1.6,5.2c0,2.3,0.6,4,1.8,5.2c1.2,1.2,2.8,1.8,4.8,1.8
		c1.1,0,2-0.1,2.7-0.4c0.7-0.3,1.5-0.6,2.1-1c0.4,0.4,0.8,0.8,1,1.3c0.2,0.5,0.4,1.1,0.4,1.8c0,1.1-0.6,2-1.8,2.7
		c-1.2,0.7-3,1.1-5.4,1.1c-1.7,0-3.4-0.2-4.9-0.7c-1.5-0.5-2.9-1.3-4-2.3c-1.1-1-2.1-2.3-2.7-3.9c-0.7-1.6-1-3.5-1-5.7
		c0-2,0.3-3.8,1-5.4s1.5-2.9,2.6-3.9c1.1-1.1,2.4-1.9,3.9-2.4c1.5-0.5,3.1-0.8,4.8-0.8c2.4,0,4.3,0.4,5.6,1.2c1.3,0.8,2,1.8,2,3
		c0,0.7-0.2,1.3-0.5,1.8c-0.3,0.5-0.7,0.9-1.2,1.2c-0.7-0.4-1.4-0.8-2.2-1.1C59.7,156.3,58.8,156.2,57.8,156.2z"/>
	<path class="st0" d="M67.5,156.9c-0.2-0.3-0.4-0.7-0.5-1.2c-0.2-0.5-0.2-1-0.2-1.6c0-1,0.2-1.7,0.7-2.2c0.5-0.4,1-0.7,1.8-0.7h17.1
		c0.2,0.3,0.4,0.7,0.5,1.2c0.2,0.5,0.2,1,0.2,1.6c0,1-0.2,1.7-0.7,2.2c-0.5,0.4-1.1,0.7-1.8,0.7h-4.3v18.1c-0.3,0.1-0.7,0.2-1.4,0.2
		s-1.2,0.1-1.8,0.1c-0.6,0-1.1,0-1.6-0.1c-0.5-0.1-0.8-0.3-1.2-0.5s-0.5-0.6-0.7-1c-0.2-0.4-0.2-1-0.2-1.6v-15.2H67.5z"/>
	<path class="st0" d="M97.2,174.9c-0.3,0.1-0.7,0.2-1.4,0.2s-1.2,0.1-1.8,0.1c-0.6,0-1.1,0-1.6-0.1c-0.5-0.1-0.8-0.3-1.2-0.5
		s-0.5-0.6-0.7-1c-0.2-0.4-0.2-1-0.2-1.6v-20.7c0.3-0.1,0.7-0.1,1.4-0.2s1.2-0.1,1.8-0.1c0.6,0,1.1,0,1.6,0.1
		c0.5,0.1,0.8,0.3,1.2,0.5s0.5,0.6,0.7,1c0.2,0.4,0.2,1,0.2,1.6V174.9z"/>
	<path class="st0" d="M116.5,174.3c-0.4,0.3-0.9,0.6-1.7,0.8c-0.8,0.2-1.6,0.4-2.5,0.4c-1.1,0-2-0.2-2.8-0.5
		c-0.8-0.3-1.3-0.8-1.6-1.4c-0.3-0.6-0.6-1.4-1.1-2.3c-0.4-1-0.9-2-1.3-3.2c-0.5-1.2-0.9-2.4-1.4-3.7c-0.5-1.3-0.9-2.7-1.4-4
		c-0.4-1.4-0.9-2.7-1.3-4c-0.4-1.3-0.7-2.5-1-3.7c0.4-0.4,0.9-0.7,1.6-1c0.7-0.3,1.4-0.4,2.2-0.4c1,0,1.8,0.2,2.4,0.6
		c0.6,0.4,1.1,1.2,1.4,2.2c0.7,2.6,1.4,5,2.1,7.3c0.7,2.3,1.5,4.8,2.2,7.3h0.2c0.7-2.5,1.4-5.1,2.2-8s1.5-5.8,2.1-8.6
		c0.5-0.2,1-0.4,1.5-0.6c0.5-0.2,1.1-0.2,1.8-0.2c1,0,1.8,0.2,2.5,0.6c0.7,0.4,1,1.1,1,2.1c0,0.6-0.1,1.4-0.4,2.5
		c-0.3,1.1-0.6,2.3-1.1,3.7c-0.4,1.4-0.9,2.8-1.4,4.3c-0.5,1.5-1.1,2.9-1.6,4.2c-0.5,1.3-1,2.5-1.5,3.5
		C117.2,173.2,116.8,173.9,116.5,174.3z"/>
	<path class="st0" d="M127.1,155c0-1.1,0.3-2,1-2.7c0.7-0.7,1.5-1,2.7-1h12.9c0.2,0.3,0.3,0.7,0.5,1.1c0.1,0.5,0.2,1,0.2,1.5
		c0,1-0.2,1.7-0.6,2.1c-0.4,0.4-1,0.6-1.7,0.6h-8.3v3.6h8.8c0.2,0.3,0.3,0.7,0.5,1.1c0.1,0.5,0.2,0.9,0.2,1.5c0,1-0.2,1.7-0.6,2.1
		c-0.4,0.4-1,0.6-1.7,0.6h-7.2v4.1h10.1c0.2,0.3,0.3,0.7,0.5,1.1c0.1,0.5,0.2,1,0.2,1.5c0,1-0.2,1.7-0.6,2.1c-0.4,0.4-1,0.6-1.7,0.6
		h-11.4c-1.1,0-2-0.3-2.7-1c-0.7-0.7-1-1.5-1-2.7V155z"/>
	<path class="st0" d="M177.4,166.3c0,1.4-0.2,2.7-0.7,3.9c-0.5,1.2-1.2,2.2-2.1,3c-0.9,0.8-2,1.5-3.3,1.9c-1.3,0.4-2.8,0.7-4.4,0.7
		c-1.6,0-3.1-0.2-4.4-0.7c-1.3-0.4-2.4-1.1-3.3-1.9c-0.9-0.8-1.6-1.8-2.1-3c-0.5-1.2-0.7-2.4-0.7-3.9v-14.9c0.3-0.1,0.7-0.1,1.4-0.2
		s1.2-0.1,1.8-0.1c0.6,0,1.1,0,1.6,0.1s0.8,0.3,1.2,0.5c0.3,0.2,0.5,0.6,0.7,1c0.2,0.4,0.2,1,0.2,1.6v11.9c0,1.3,0.3,2.2,1,2.9
		s1.6,1.1,2.7,1.1c1.1,0,2-0.4,2.7-1.1c0.7-0.7,1-1.7,1-2.9v-14.8c0.3-0.1,0.7-0.1,1.4-0.2s1.2-0.1,1.8-0.1c0.6,0,1.1,0,1.6,0.1
		c0.5,0.1,0.8,0.3,1.2,0.5c0.3,0.2,0.5,0.6,0.7,1c0.2,0.4,0.2,1,0.2,1.6V166.3z"/>
	<path class="st0" d="M203.8,174.3c-0.4,0.4-0.9,0.6-1.6,0.8c-0.7,0.2-1.5,0.3-2.5,0.3s-1.9-0.1-2.7-0.4c-0.9-0.3-1.6-1-2.1-2.1
		L191,165c-0.4-0.8-0.7-1.6-1.1-2.3c-0.3-0.7-0.7-1.5-1-2.5l-0.2,0c0.1,1.4,0.2,2.8,0.2,4.3c0,1.5,0,2.9,0,4.3v6.1
		c-0.3,0.1-0.7,0.2-1.3,0.2s-1.2,0.1-1.7,0.1c-0.6,0-1.1,0-1.5-0.1s-0.8-0.2-1.1-0.5c-0.3-0.2-0.5-0.6-0.7-1
		c-0.2-0.4-0.2-0.9-0.2-1.6v-19.6c0.4-0.5,0.9-0.9,1.7-1.2c0.8-0.3,1.6-0.4,2.4-0.4c1,0,1.9,0.2,2.8,0.5c0.9,0.3,1.6,1,2.1,2.1
		l3.9,7.9c0.4,0.8,0.7,1.6,1.1,2.3c0.3,0.7,0.7,1.5,1,2.5l0.2,0c-0.1-1.4-0.2-2.8-0.2-4.2c0-1.4,0-2.8,0-4.2v-6.3
		c0.3-0.1,0.7-0.2,1.3-0.2c0.6-0.1,1.2-0.1,1.7-0.1c1.1,0,2,0.2,2.6,0.6c0.6,0.4,0.9,1.2,0.9,2.5V174.3z"/>
	<path class="st0" d="M215.7,174.9c-0.3,0.1-0.7,0.2-1.3,0.2c-0.6,0.1-1.2,0.1-1.8,0.1c-0.6,0-1.1,0-1.6-0.1s-0.8-0.3-1.2-0.5
		c-0.3-0.2-0.5-0.6-0.7-1c-0.2-0.4-0.2-1-0.2-1.6v-20.7c0.3-0.1,0.7-0.1,1.4-0.2s1.2-0.1,1.8-0.1c0.6,0,1.1,0,1.6,0.1
		s0.8,0.3,1.2,0.5c0.3,0.2,0.5,0.6,0.7,1c0.2,0.4,0.2,1,0.2,1.6V174.9z"/>
	<path class="st0" d="M219.7,156.9c-0.2-0.3-0.4-0.7-0.5-1.2c-0.2-0.5-0.2-1-0.2-1.6c0-1,0.2-1.7,0.7-2.2c0.5-0.4,1-0.7,1.8-0.7
		h17.1c0.2,0.3,0.4,0.7,0.5,1.2c0.2,0.5,0.2,1,0.2,1.6c0,1-0.2,1.7-0.7,2.2c-0.5,0.4-1,0.7-1.8,0.7h-4.3v18.1
		c-0.3,0.1-0.7,0.2-1.3,0.2c-0.6,0.1-1.2,0.1-1.8,0.1s-1.1,0-1.6-0.1c-0.5-0.1-0.8-0.3-1.2-0.5c-0.3-0.2-0.5-0.6-0.7-1
		s-0.2-1-0.2-1.6v-15.2H219.7z"/>
	<path class="st0" d="M255.9,174.9c-0.3,0.1-0.7,0.2-1.3,0.2c-0.6,0.1-1.2,0.1-1.8,0.1c-1.2,0-2.1-0.2-2.7-0.6
		c-0.6-0.4-0.9-1.3-0.9-2.6v-5.3c-0.7-1-1.4-2-2.1-3.2c-0.8-1.2-1.5-2.4-2.2-3.6s-1.4-2.4-2-3.6c-0.6-1.2-1.1-2.3-1.5-3.3
		c0.3-0.5,0.8-0.9,1.4-1.3s1.3-0.6,2.2-0.6c1,0,1.8,0.2,2.5,0.6c0.6,0.4,1.2,1.2,1.8,2.3l3.2,6.5h0.2c0.4-0.8,0.7-1.5,1-2.2
		s0.5-1.3,0.8-2s0.5-1.4,0.8-2.1c0.3-0.7,0.6-1.5,1-2.5c0.5-0.2,1-0.4,1.6-0.5c0.6-0.1,1.1-0.2,1.6-0.2c0.9,0,1.7,0.2,2.3,0.7
		c0.6,0.5,1,1.2,1,2.2c0,0.3-0.1,0.7-0.2,1.1c-0.1,0.4-0.4,1.1-0.9,2c-0.5,0.9-1.2,2.1-2.1,3.7c-0.9,1.5-2.1,3.5-3.7,6V174.9z"/>
</g>
<g>
	<path class="st0" d="M21.9,190.6h-2.4v-0.5h5.5v0.5h-2.5v6.8h-0.6V190.6z"/>
	<path class="st0" d="M28.6,190.1h0.6v3.2h4.4v-3.2h0.6v7.3h-0.6v-3.6h-4.4v3.6h-0.6V190.1z"/>
	<path class="st0" d="M43,193.8h-3.7v3.1h4.1l-0.1,0.5h-4.5v-7.3h4.5v0.5h-3.9v2.7H43V193.8z"/>
	<path class="st0" d="M58.2,195.5c-0.3,1.2-1.2,2-2.7,2c-2.1,0-3.2-1.7-3.2-3.7c0-2,1.1-3.8,3.2-3.8c1.6,0,2.5,0.9,2.7,2.1h-0.6
		c-0.3-0.9-0.9-1.6-2.2-1.6c-1.8,0-2.6,1.7-2.6,3.2c0,1.6,0.7,3.2,2.6,3.2c1.2,0,1.8-0.6,2.2-1.5H58.2z"/>
	<path class="st0" d="M62.9,190.1v7.3h-0.6v-7.3H62.9z"/>
	<path class="st0" d="M69,190.6h-2.4v-0.5h5.5v0.5h-2.5v6.8H69V190.6z"/>
	<path class="st0" d="M78,197.4v-2.7c0-0.1,0-0.1,0-0.2l-2.6-4.4H76c0.7,1.2,2,3.4,2.3,3.9c0.3-0.5,1.6-2.7,2.4-3.9h0.6l-2.7,4.4
		c0,0,0,0.1,0,0.2v2.7H78z"/>
	<path class="st0" d="M90.2,190.1h4.4v0.5h-3.8v2.7h3.6v0.5h-3.6v3.5h-0.6V190.1z"/>
	<path class="st0" d="M99,194v3.4h-0.6v-7.3h2.6c1.4,0,2.2,0.8,2.2,1.9c0,0.9-0.6,1.5-1.4,1.7c0.7,0.2,1.2,0.7,1.2,1.9v0.3
		c0,0.5,0,1.2,0.1,1.5h-0.6c-0.1-0.3-0.1-0.9-0.1-1.5v-0.2c0-1.2-0.4-1.7-1.7-1.7H99z M99,193.5h1.8c1.3,0,1.9-0.5,1.9-1.4
		c0-0.9-0.6-1.4-1.7-1.4H99V193.5z"/>
	<path class="st0" d="M113.6,193.7c0,2-1.1,3.8-3.3,3.8c-2,0-3.2-1.7-3.2-3.7c0-2.1,1.2-3.7,3.3-3.7
		C112.4,190,113.6,191.6,113.6,193.7z M107.7,193.7c0,1.7,0.9,3.3,2.7,3.3c1.9,0,2.7-1.5,2.7-3.3c0-1.7-0.9-3.2-2.6-3.2
		C108.5,190.5,107.7,192.1,107.7,193.7z"/>
	<path class="st0" d="M124.1,194.1c0-1.4,0-2.8,0-3.5h0c-0.3,1-1.8,4.6-2.7,6.9h-0.6c-0.7-1.8-2.2-5.8-2.6-6.9h0
		c0.1,0.8,0.1,2.5,0.1,3.8v3.1h-0.6v-7.3h0.8c1,2.5,2.3,5.8,2.5,6.6h0c0.2-0.5,1.6-4.2,2.6-6.6h0.8v7.3h-0.6V194.1z"/>
	<path class="st0" d="M135.3,194.9l-0.9,2.5h-0.6l2.7-7.3h0.7l2.8,7.3h-0.6l-0.9-2.5H135.3z M138.2,194.4c-0.8-2.2-1.2-3.2-1.4-3.7
		h0c-0.2,0.5-0.6,1.8-1.3,3.7H138.2z"/>
	<path class="st0" d="M149.1,190.1h2.4c2,0,3.4,1.4,3.4,3.6c0,2.2-1.4,3.7-3.4,3.7h-2.4V190.1z M149.6,196.9h1.8
		c1.9,0,2.9-1.4,2.9-3.1c0-1.6-0.9-3.1-2.9-3.1h-1.8V196.9z"/>
	<path class="st0" d="M159.6,190.1v7.3H159v-7.3H159.6z"/>
	<path class="st0" d="M164.3,190.1h4.4v0.5h-3.8v2.7h3.6v0.5h-3.6v3.5h-0.6V190.1z"/>
	<path class="st0" d="M172.6,190.1h4.4v0.5h-3.8v2.7h3.6v0.5h-3.6v3.5h-0.6V190.1z"/>
	<path class="st0" d="M185.1,193.8h-3.7v3.1h4.1l-0.1,0.5h-4.5v-7.3h4.5v0.5h-3.9v2.7h3.7V193.8z"/>
	<path class="st0" d="M190.1,194v3.4h-0.6v-7.3h2.6c1.4,0,2.2,0.8,2.2,1.9c0,0.9-0.6,1.5-1.4,1.7c0.7,0.2,1.2,0.7,1.2,1.9v0.3
		c0,0.5,0,1.2,0.1,1.5h-0.6c-0.1-0.3-0.1-0.9-0.1-1.5v-0.2c0-1.2-0.4-1.7-1.7-1.7H190.1z M190.1,193.5h1.8c1.3,0,1.9-0.5,1.9-1.4
		c0-0.9-0.6-1.4-1.7-1.4h-1.9V193.5z"/>
	<path class="st0" d="M202.9,193.8h-3.7v3.1h4.1l-0.1,0.5h-4.5v-7.3h4.5v0.5h-3.9v2.7h3.7V193.8z"/>
	<path class="st0" d="M207.3,197.4v-7.3h0.8c1.1,1.7,3.8,5.8,4.2,6.6h0c-0.1-1-0.1-2.1-0.1-3.3v-3.3h0.6v7.3h-0.8
		c-1.1-1.7-3.8-5.9-4.3-6.7h0c0.1,1,0,2,0,3.3v3.4H207.3z"/>
	<path class="st0" d="M219,190.6h-2.4v-0.5h5.5v0.5h-2.5v6.8H219V190.6z"/>
	<path class="st0" d="M232.8,197.4l-2.7-7.3h0.6l1.4,3.8c0.4,1.1,0.9,2.3,1,2.9h0c0.2-0.5,0.7-1.8,1.1-2.9l1.5-3.8h0.6l-2.8,7.3
		H232.8z"/>
	<path class="st0" d="M240.7,190.1v7.3h-0.6v-7.3H240.7z"/>
	<path class="st0" d="M249.7,193.8H246v3.1h4.1l-0.1,0.5h-4.5v-7.3h4.5v0.5H246v2.7h3.7V193.8z"/>
	<path class="st0" d="M255.4,197.4l-2-7.3h0.6c0.5,1.7,1.6,5.8,1.8,6.6h0c0.1-0.7,1.3-4.7,1.8-6.6h0.6c0.5,1.8,1.6,6,1.8,6.6h0
		c0.2-1,1.4-4.9,1.9-6.6h0.6l-2.2,7.3h-0.6c-0.5-1.7-1.6-5.9-1.7-6.5h0c-0.2,0.9-1.3,4.7-1.8,6.5H255.4z"/>
</g>
</svg>
