<svg xmlns="http://www.w3.org/2000/svg" width="50.001" height="40" viewBox="0 0 50.001 40">
  <path id="Path_9" data-name="Path 9" d="M27.611,4c1.335.007,4.676.04,8.226.182l1.259.055a51.093,51.093,0,0,1,8.916.952,7.027,7.027,0,0,1,4.847,5.055c1,3.9,1.124,11.506,1.14,13.347l0,.382v.054l0,.382c-.015,1.841-.141,9.449-1.14,13.347a7.027,7.027,0,0,1-4.847,5.055,51.1,51.1,0,0,1-8.916.952l-1.259.055c-3.55.142-6.891.175-8.226.182l-.586,0h-.052l-.586,0c-2.826-.016-14.643-.143-18.4-1.189A7.028,7.028,0,0,1,3.14,37.754c-1-3.9-1.124-11.506-1.14-13.347v-.817c.016-1.841.141-9.449,1.14-13.347A7.027,7.027,0,0,1,7.987,5.189C11.745,4.143,23.561,4.016,26.388,4ZM22,15.248v17.5L37,24Z" transform="translate(-2 -4)" fill="#fff"/>
</svg>
