<?xml version="1.0" encoding="utf-8"?>
<!-- Generator: Adobe Illustrator 28.2.0, SVG Export Plug-In . SVG Version: 6.00 Build 0)  -->
<svg version="1.1" id="Layer_1" xmlns="http://www.w3.org/2000/svg" xmlns:xlink="http://www.w3.org/1999/xlink" x="0px" y="0px"
	 viewBox="0 0 392 119" style="enable-background:new 0 0 392 119;" xml:space="preserve">
<style type="text/css">
	.st0{fill:#FFFFFF;}
</style>
<g>
	<g>
		<circle class="st0" cx="70.6" cy="52.3" r="11.8"/>
		<path class="st0" d="M97.5,59.1c-1.7,0-3.3,0.9-4.2,2.2l-10.4-3.5l-0.9,2.6l10.4,3.5c0,0.1,0,0.2,0,0.3c0,2.8,2.3,5.1,5.1,5.1
			c2.8,0,5.1-2.3,5.1-5.1C102.6,61.3,100.3,59.1,97.5,59.1z"/>
		<path class="st0" d="M66.2,79.5l2.4-13.4L66,65.6l-2.4,13.1c-0.2,0-0.4,0-0.6,0c-3.7,0-6.7,3-6.7,6.7s3,6.7,6.7,6.7
			c3.7,0,6.7-3,6.7-6.7C69.8,82.9,68.3,80.7,66.2,79.5z"/>
		<path class="st0" d="M61.9,41.8l-8.2-7.4c0.4-0.7,0.7-1.6,0.7-2.5c0-2.8-2.3-5.1-5.1-5.1c-2.8,0-5.1,2.3-5.1,5.1s2.3,5.1,5.1,5.1
			c0.9,0,1.8-0.2,2.5-0.7l8.3,7.5L61.9,41.8z"/>
		<path class="st0" d="M93.3,28.1c-2.8,0-5.1,2.3-5.1,5.1c0,0.6,0.1,1.2,0.3,1.7L79,42.1l1.6,2.1l9.4-7.2c0.9,0.7,2,1.2,3.2,1.2
			c2.8,0,5.1-2.3,5.1-5.1S96.1,28.1,93.3,28.1z"/>
		<path class="st0" d="M58.4,57.2L57.7,55L44,59.3c-1-2.8-3.7-4.9-6.9-4.9c-4.1,0-7.4,3.3-7.4,7.4c0,4.1,3.3,7.4,7.4,7.4
			s7.4-3.3,7.4-7.4c0-0.1,0-0.2,0-0.2L58.4,57.2z"/>
	</g>
	<g>
		<path class="st0" d="M125.6,42.1c0.4-0.3,1.1-0.5,2-0.7c0.9-0.2,1.8-0.4,2.7-0.4c1.3,0,2.5,0.2,3.5,0.6c1,0.4,1.6,1,1.9,1.8
			c0.5,1.4,1,2.9,1.5,4.7c0.5,1.8,1.1,3.7,1.6,5.6c0.5,1.9,1.1,3.8,1.6,5.7c0.5,1.9,1,3.5,1.4,4.9c-0.3,0.4-0.8,0.7-1.4,0.9
			c-0.6,0.2-1.4,0.3-2.2,0.3c-0.6,0-1.2-0.1-1.6-0.2c-0.4-0.1-0.8-0.3-1.1-0.5c-0.3-0.2-0.5-0.5-0.7-0.8c-0.2-0.3-0.3-0.7-0.4-1.2
			l-0.7-2.7h-7.1c-0.2,0.8-0.4,1.6-0.6,2.4c-0.2,0.8-0.4,1.6-0.6,2.4c-0.4,0.1-0.8,0.2-1.2,0.3c-0.4,0.1-0.9,0.1-1.5,0.1
			c-1.3,0-2.3-0.2-3-0.7c-0.6-0.5-1-1.1-1-1.9c0-0.4,0.1-0.7,0.2-1.1c0.1-0.4,0.2-0.8,0.4-1.3c0.2-0.7,0.4-1.6,0.8-2.6
			c0.3-1,0.7-2.2,1.1-3.4s0.8-2.5,1.3-3.7c0.4-1.3,0.9-2.5,1.3-3.6c0.4-1.1,0.7-2.1,1.1-3C125.2,43.2,125.4,42.6,125.6,42.1z
			 M130.3,47.1c-0.4,1.1-0.8,2.3-1.2,3.7c-0.5,1.3-0.9,2.7-1.2,4.1h4.9c-0.4-1.4-0.7-2.8-1.1-4.1c-0.4-1.3-0.7-2.5-1-3.6H130.3z"/>
		<path class="st0" d="M156.8,46.2c-2,0-3.5,0.6-4.6,1.8c-1.1,1.2-1.6,3-1.6,5.2c0,2.3,0.6,4,1.8,5.2c1.2,1.2,2.8,1.8,4.8,1.8
			c1.1,0,2-0.1,2.7-0.4c0.7-0.3,1.5-0.6,2.1-1c0.4,0.4,0.8,0.8,1,1.3c0.2,0.5,0.4,1.1,0.4,1.8c0,1.1-0.6,2-1.8,2.7
			c-1.2,0.7-3,1.1-5.4,1.1c-1.7,0-3.4-0.2-4.9-0.7c-1.5-0.5-2.9-1.3-4-2.3c-1.1-1-2.1-2.3-2.7-3.9c-0.7-1.6-1-3.5-1-5.7
			c0-2,0.3-3.8,1-5.4s1.5-2.9,2.6-3.9c1.1-1.1,2.4-1.9,3.9-2.4c1.5-0.5,3.1-0.8,4.8-0.8c2.4,0,4.3,0.4,5.6,1.2c1.3,0.8,2,1.8,2,3
			c0,0.7-0.2,1.3-0.5,1.8c-0.3,0.5-0.7,0.9-1.2,1.2c-0.7-0.4-1.4-0.8-2.2-1.1C158.7,46.3,157.8,46.2,156.8,46.2z"/>
		<path class="st0" d="M166.5,46.9c-0.2-0.3-0.4-0.7-0.5-1.2c-0.2-0.5-0.2-1-0.2-1.6c0-1,0.2-1.7,0.7-2.2c0.5-0.4,1-0.7,1.8-0.7
			h17.1c0.2,0.3,0.4,0.7,0.5,1.2c0.2,0.5,0.2,1,0.2,1.6c0,1-0.2,1.7-0.7,2.2c-0.5,0.4-1.1,0.7-1.8,0.7h-4.3v18.1
			c-0.3,0.1-0.7,0.2-1.4,0.2s-1.2,0.1-1.8,0.1c-0.6,0-1.1,0-1.6-0.1c-0.5-0.1-0.8-0.3-1.2-0.5s-0.5-0.6-0.7-1
			c-0.2-0.4-0.2-1-0.2-1.6V46.9H166.5z"/>
		<path class="st0" d="M196.2,64.9c-0.3,0.1-0.7,0.2-1.4,0.2s-1.2,0.1-1.8,0.1c-0.6,0-1.1,0-1.6-0.1c-0.5-0.1-0.8-0.3-1.2-0.5
			s-0.5-0.6-0.7-1c-0.2-0.4-0.2-1-0.2-1.6V41.4c0.3-0.1,0.7-0.1,1.4-0.2s1.2-0.1,1.8-0.1c0.6,0,1.1,0,1.6,0.1
			c0.5,0.1,0.8,0.3,1.2,0.5s0.5,0.6,0.7,1c0.2,0.4,0.2,1,0.2,1.6V64.9z"/>
		<path class="st0" d="M215.5,64.3c-0.4,0.3-0.9,0.6-1.7,0.8c-0.8,0.2-1.6,0.4-2.5,0.4c-1.1,0-2-0.2-2.8-0.5
			c-0.8-0.3-1.3-0.8-1.6-1.4c-0.3-0.6-0.6-1.4-1.1-2.3c-0.4-1-0.9-2-1.3-3.2c-0.5-1.2-0.9-2.4-1.4-3.7c-0.5-1.3-0.9-2.7-1.4-4
			c-0.4-1.4-0.9-2.7-1.3-4c-0.4-1.3-0.7-2.5-1-3.7c0.4-0.4,0.9-0.7,1.6-1c0.7-0.3,1.4-0.4,2.2-0.4c1,0,1.8,0.2,2.4,0.6
			c0.6,0.4,1.1,1.2,1.4,2.2c0.7,2.6,1.4,5,2.1,7.3c0.7,2.3,1.5,4.8,2.2,7.3h0.2c0.7-2.5,1.4-5.1,2.2-8s1.5-5.8,2.1-8.6
			c0.5-0.2,1-0.4,1.5-0.6c0.5-0.2,1.1-0.2,1.8-0.2c1,0,1.8,0.2,2.5,0.6c0.7,0.4,1,1.1,1,2.1c0,0.6-0.1,1.4-0.4,2.5
			c-0.3,1.1-0.6,2.3-1.1,3.7c-0.4,1.4-0.9,2.8-1.4,4.3c-0.5,1.5-1.1,2.9-1.6,4.2c-0.5,1.3-1,2.5-1.5,3.5
			C216.2,63.2,215.8,63.9,215.5,64.3z"/>
		<path class="st0" d="M226.1,45c0-1.1,0.3-2,1-2.7c0.7-0.7,1.5-1,2.7-1h12.9c0.2,0.3,0.3,0.7,0.5,1.1c0.1,0.5,0.2,1,0.2,1.5
			c0,1-0.2,1.7-0.6,2.1c-0.4,0.4-1,0.6-1.7,0.6h-8.3v3.6h8.8c0.2,0.3,0.3,0.7,0.5,1.1c0.1,0.5,0.2,0.9,0.2,1.5c0,1-0.2,1.7-0.6,2.1
			c-0.4,0.4-1,0.6-1.7,0.6h-7.2v4.1h10.1c0.2,0.3,0.3,0.7,0.5,1.1c0.1,0.5,0.2,1,0.2,1.5c0,1-0.2,1.7-0.6,2.1
			c-0.4,0.4-1,0.6-1.7,0.6h-11.4c-1.1,0-2-0.3-2.7-1c-0.7-0.7-1-1.5-1-2.7V45z"/>
		<path class="st0" d="M276.4,56.3c0,1.4-0.2,2.7-0.7,3.9c-0.5,1.2-1.2,2.2-2.1,3c-0.9,0.8-2,1.5-3.3,1.9c-1.3,0.4-2.8,0.7-4.4,0.7
			c-1.6,0-3.1-0.2-4.4-0.7c-1.3-0.4-2.4-1.1-3.3-1.9c-0.9-0.8-1.6-1.8-2.1-3c-0.5-1.2-0.7-2.4-0.7-3.9V41.4c0.3-0.1,0.7-0.1,1.4-0.2
			s1.2-0.1,1.8-0.1c0.6,0,1.1,0,1.6,0.1s0.8,0.3,1.2,0.5c0.3,0.2,0.5,0.6,0.7,1c0.2,0.4,0.2,1,0.2,1.6v11.9c0,1.3,0.3,2.2,1,2.9
			s1.6,1.1,2.7,1.1c1.1,0,2-0.4,2.7-1.1c0.7-0.7,1-1.7,1-2.9V41.4c0.3-0.1,0.7-0.1,1.4-0.2s1.2-0.1,1.8-0.1c0.6,0,1.1,0,1.6,0.1
			c0.5,0.1,0.8,0.3,1.2,0.5c0.3,0.2,0.5,0.6,0.7,1c0.2,0.4,0.2,1,0.2,1.6V56.3z"/>
		<path class="st0" d="M302.8,64.3c-0.4,0.4-0.9,0.6-1.6,0.8c-0.7,0.2-1.5,0.3-2.5,0.3s-1.9-0.1-2.7-0.4c-0.9-0.3-1.6-1-2.1-2.1
			L290,55c-0.4-0.8-0.7-1.6-1.1-2.3c-0.3-0.7-0.7-1.5-1-2.5l-0.2,0c0.1,1.4,0.2,2.8,0.2,4.3c0,1.5,0,2.9,0,4.3v6.1
			c-0.3,0.1-0.7,0.2-1.3,0.2s-1.2,0.1-1.7,0.1c-0.6,0-1.1,0-1.5-0.1s-0.8-0.2-1.1-0.5c-0.3-0.2-0.5-0.6-0.7-1
			c-0.2-0.4-0.2-0.9-0.2-1.6V42.6c0.4-0.5,0.9-0.9,1.7-1.2c0.8-0.3,1.6-0.4,2.4-0.4c1,0,1.9,0.2,2.8,0.5c0.9,0.3,1.6,1,2.1,2.1
			l3.9,7.9c0.4,0.8,0.7,1.6,1.1,2.3c0.3,0.7,0.7,1.5,1,2.5l0.2,0c-0.1-1.4-0.2-2.8-0.2-4.2c0-1.4,0-2.8,0-4.2v-6.3
			c0.3-0.1,0.7-0.2,1.3-0.2c0.6-0.1,1.2-0.1,1.7-0.1c1.1,0,2,0.2,2.6,0.6c0.6,0.4,0.9,1.2,0.9,2.5V64.3z"/>
		<path class="st0" d="M314.7,64.9c-0.3,0.1-0.7,0.2-1.3,0.2c-0.6,0.1-1.2,0.1-1.8,0.1c-0.6,0-1.1,0-1.6-0.1s-0.8-0.3-1.2-0.5
			c-0.3-0.2-0.5-0.6-0.7-1c-0.2-0.4-0.2-1-0.2-1.6V41.4c0.3-0.1,0.7-0.1,1.4-0.2s1.2-0.1,1.8-0.1c0.6,0,1.1,0,1.6,0.1
			s0.8,0.3,1.2,0.5c0.3,0.2,0.5,0.6,0.7,1c0.2,0.4,0.2,1,0.2,1.6V64.9z"/>
		<path class="st0" d="M318.7,46.9c-0.2-0.3-0.4-0.7-0.5-1.2c-0.2-0.5-0.2-1-0.2-1.6c0-1,0.2-1.7,0.7-2.2c0.5-0.4,1-0.7,1.8-0.7
			h17.1c0.2,0.3,0.4,0.7,0.5,1.2c0.2,0.5,0.2,1,0.2,1.6c0,1-0.2,1.7-0.7,2.2c-0.5,0.4-1,0.7-1.8,0.7h-4.3v18.1
			c-0.3,0.1-0.7,0.2-1.3,0.2c-0.6,0.1-1.2,0.1-1.8,0.1s-1.1,0-1.6-0.1c-0.5-0.1-0.8-0.3-1.2-0.5c-0.3-0.2-0.5-0.6-0.7-1
			s-0.2-1-0.2-1.6V46.9H318.7z"/>
		<path class="st0" d="M354.9,64.9c-0.3,0.1-0.7,0.2-1.3,0.2c-0.6,0.1-1.2,0.1-1.8,0.1c-1.2,0-2.1-0.2-2.7-0.6
			c-0.6-0.4-0.9-1.3-0.9-2.6v-5.3c-0.7-1-1.4-2-2.1-3.2c-0.8-1.2-1.5-2.4-2.2-3.6s-1.4-2.4-2-3.6c-0.6-1.2-1.1-2.3-1.5-3.3
			c0.3-0.5,0.8-0.9,1.4-1.3s1.3-0.6,2.2-0.6c1,0,1.8,0.2,2.5,0.6c0.6,0.4,1.2,1.2,1.8,2.3l3.2,6.5h0.2c0.4-0.8,0.7-1.5,1-2.2
			s0.5-1.3,0.8-2s0.5-1.4,0.8-2.1c0.3-0.7,0.6-1.5,1-2.5c0.5-0.2,1-0.4,1.6-0.5c0.6-0.1,1.1-0.2,1.6-0.2c0.9,0,1.7,0.2,2.3,0.7
			c0.6,0.5,1,1.2,1,2.2c0,0.3-0.1,0.7-0.2,1.1c-0.1,0.4-0.4,1.1-0.9,2c-0.5,0.9-1.2,2.1-2.1,3.7c-0.9,1.5-2.1,3.5-3.7,6V64.9z"/>
	</g>
	<g>
		<path class="st0" d="M120.9,80.3h-2.4v-0.5h5.4v0.5h-2.4V87h-0.6V80.3z"/>
		<path class="st0" d="M127.6,79.7h0.6v3.2h4.4v-3.2h0.6V87h-0.6v-3.6h-4.4V87h-0.6V79.7z"/>
		<path class="st0" d="M142,83.4h-3.7v3h4.1l-0.1,0.5h-4.5v-7.3h4.4v0.5h-3.9v2.7h3.7V83.4z"/>
		<path class="st0" d="M157.1,85.1c-0.3,1.2-1.2,2-2.7,2c-2.1,0-3.2-1.7-3.2-3.7c0-2,1.1-3.7,3.2-3.7c1.6,0,2.5,0.9,2.7,2.1h-0.6
			c-0.3-0.9-0.9-1.6-2.2-1.6c-1.8,0-2.6,1.6-2.6,3.2c0,1.6,0.7,3.2,2.6,3.2c1.2,0,1.8-0.6,2.1-1.5H157.1z"/>
		<path class="st0" d="M161.8,79.7V87h-0.6v-7.3H161.8z"/>
		<path class="st0" d="M167.9,80.3h-2.4v-0.5h5.4v0.5h-2.4V87h-0.6V80.3z"/>
		<path class="st0" d="M176.8,87v-2.7c0-0.1,0-0.1,0-0.2l-2.6-4.4h0.7c0.7,1.2,2,3.4,2.3,3.9c0.3-0.5,1.6-2.7,2.4-3.9h0.6l-2.7,4.4
			c0,0,0,0.1,0,0.2V87H176.8z"/>
		<path class="st0" d="M189,79.7h4.4v0.5h-3.8V83h3.6v0.5h-3.6V87H189V79.7z"/>
		<path class="st0" d="M197.8,83.6V87h-0.6v-7.3h2.6c1.4,0,2.2,0.8,2.2,1.9c0,0.9-0.5,1.5-1.4,1.7c0.7,0.2,1.2,0.7,1.2,1.9v0.3
			c0,0.5,0,1.2,0.1,1.5h-0.6c-0.1-0.3-0.1-0.9-0.1-1.5v-0.2c0-1.2-0.4-1.7-1.7-1.7H197.8z M197.8,83.1h1.8c1.3,0,1.9-0.5,1.9-1.4
			c0-0.9-0.6-1.4-1.7-1.4h-1.9V83.1z"/>
		<path class="st0" d="M212.4,83.3c0,2-1.1,3.8-3.3,3.8c-2,0-3.2-1.6-3.2-3.7c0-2.1,1.2-3.7,3.3-3.7
			C211.2,79.6,212.4,81.2,212.4,83.3z M206.5,83.3c0,1.7,0.9,3.2,2.7,3.2c1.9,0,2.7-1.5,2.7-3.3c0-1.7-0.9-3.2-2.6-3.2
			C207.3,80.2,206.5,81.7,206.5,83.3z"/>
		<path class="st0" d="M222.8,83.7c0-1.4,0-2.8,0-3.5h0c-0.3,1-1.8,4.5-2.7,6.8h-0.5c-0.7-1.8-2.2-5.8-2.5-6.8h0
			c0.1,0.8,0.1,2.5,0.1,3.8V87h-0.6v-7.3h0.8c1,2.5,2.2,5.7,2.5,6.6h0c0.2-0.5,1.6-4.1,2.6-6.6h0.8V87h-0.6V83.7z"/>
		<path class="st0" d="M234,84.5l-0.9,2.5h-0.6l2.7-7.3h0.7l2.8,7.3H238l-0.9-2.5H234z M236.9,84c-0.8-2.2-1.2-3.2-1.4-3.7h0
			c-0.2,0.5-0.6,1.8-1.3,3.7H236.9z"/>
		<path class="st0" d="M247.7,79.7h2.4c2,0,3.4,1.4,3.4,3.6c0,2.2-1.3,3.7-3.4,3.7h-2.4V79.7z M248.3,86.5h1.8
			c1.9,0,2.9-1.3,2.9-3.1c0-1.6-0.8-3.1-2.9-3.1h-1.8V86.5z"/>
		<path class="st0" d="M258.2,79.7V87h-0.6v-7.3H258.2z"/>
		<path class="st0" d="M262.9,79.7h4.4v0.5h-3.8V83h3.6v0.5h-3.6V87h-0.6V79.7z"/>
		<path class="st0" d="M271.2,79.7h4.4v0.5h-3.8V83h3.6v0.5h-3.6V87h-0.6V79.7z"/>
		<path class="st0" d="M283.7,83.4H280v3h4.1L284,87h-4.5v-7.3h4.4v0.5H280v2.7h3.7V83.4z"/>
		<path class="st0" d="M288.6,83.6V87h-0.6v-7.3h2.6c1.4,0,2.2,0.8,2.2,1.9c0,0.9-0.5,1.5-1.4,1.7c0.7,0.2,1.2,0.7,1.2,1.9v0.3
			c0,0.5,0,1.2,0.1,1.5h-0.6c-0.1-0.3-0.1-0.9-0.1-1.5v-0.2c0-1.2-0.4-1.7-1.7-1.7H288.6z M288.6,83.1h1.8c1.3,0,1.9-0.5,1.9-1.4
			c0-0.9-0.6-1.4-1.7-1.4h-1.9V83.1z"/>
		<path class="st0" d="M301.4,83.4h-3.7v3h4.1l-0.1,0.5h-4.5v-7.3h4.4v0.5h-3.9v2.7h3.7V83.4z"/>
		<path class="st0" d="M305.8,87v-7.3h0.8c1.1,1.7,3.8,5.8,4.2,6.6h0c-0.1-1-0.1-2.1-0.1-3.3v-3.3h0.6V87h-0.8
			c-1.1-1.7-3.8-5.9-4.3-6.7h0c0.1,1,0,2,0,3.3V87H305.8z"/>
		<path class="st0" d="M317.5,80.3h-2.4v-0.5h5.4v0.5h-2.4V87h-0.6V80.3z"/>
		<path class="st0" d="M331.3,87l-2.7-7.3h0.6l1.4,3.8c0.4,1.1,0.9,2.3,1,2.9h0c0.2-0.5,0.7-1.8,1.1-2.9l1.5-3.8h0.6L332,87H331.3z"
			/>
		<path class="st0" d="M339.1,79.7V87h-0.6v-7.3H339.1z"/>
		<path class="st0" d="M348.1,83.4h-3.7v3h4.1l-0.1,0.5h-4.5v-7.3h4.4v0.5h-3.9v2.7h3.7V83.4z"/>
		<path class="st0" d="M353.8,87l-2-7.3h0.6c0.5,1.7,1.6,5.8,1.8,6.6h0c0.1-0.7,1.3-4.7,1.8-6.6h0.6c0.5,1.8,1.6,6,1.8,6.6h0
			c0.2-1,1.4-4.9,1.9-6.6h0.6l-2.2,7.3H358c-0.5-1.7-1.6-5.9-1.7-6.5h0c-0.2,0.9-1.3,4.7-1.8,6.5H353.8z"/>
	</g>
</g>
</svg>
