<?xml version="1.0" encoding="utf-8"?>
<!-- Generator: Adobe Illustrator 28.2.0, SVG Export Plug-In . SVG Version: 6.00 Build 0)  -->
<svg version="1.1" id="Layer_1" xmlns="http://www.w3.org/2000/svg" xmlns:xlink="http://www.w3.org/1999/xlink" x="0px" y="0px"
	 viewBox="0 0 392 119" style="enable-background:new 0 0 392 119;" xml:space="preserve">
<style type="text/css">
	.st0{font-family:'BalooBhaijaan-Regular';}
	.st1{font-size:39.1226px;}
</style>
<g>
	<g>
		<circle cx="70.6" cy="52.3" r="11.8"/>
		<path d="M97.5,59.1c-1.7,0-3.3,0.9-4.2,2.2l-10.4-3.5l-0.9,2.6l10.4,3.5c0,0.1,0,0.2,0,0.3c0,2.8,2.3,5.1,5.1,5.1
			c2.8,0,5.1-2.3,5.1-5.1C102.6,61.3,100.3,59.1,97.5,59.1z"/>
		<path d="M66.2,79.5l2.4-13.4L66,65.6l-2.4,13.1c-0.2,0-0.4,0-0.6,0c-3.7,0-6.7,3-6.7,6.7s3,6.7,6.7,6.7c3.7,0,6.7-3,6.7-6.7
			C69.8,82.9,68.3,80.7,66.2,79.5z"/>
		<path d="M61.9,41.8l-8.2-7.4c0.4-0.7,0.7-1.6,0.7-2.5c0-2.8-2.3-5.1-5.1-5.1c-2.8,0-5.1,2.3-5.1,5.1s2.3,5.1,5.1,5.1
			c0.9,0,1.8-0.2,2.5-0.7l8.3,7.5L61.9,41.8z"/>
		<path d="M93.3,28.1c-2.8,0-5.1,2.3-5.1,5.1c0,0.6,0.1,1.2,0.3,1.7L79,42.1l1.6,2.1l9.4-7.2c0.9,0.7,2,1.2,3.2,1.2
			c2.8,0,5.1-2.3,5.1-5.1S96.1,28.1,93.3,28.1z"/>
		<path d="M58.4,57.2L57.7,55L44,59.3c-1-2.8-3.7-4.9-6.9-4.9c-4.1,0-7.4,3.3-7.4,7.4c0,4.1,3.3,7.4,7.4,7.4s7.4-3.3,7.4-7.4
			c0-0.1,0-0.2,0-0.2L58.4,57.2z"/>
	</g>
	<text transform="matrix(1 0 0 1 118.0319 65.1015)" class="st0 st1">ACTIVE UNITY</text>
	<g>
		<g>
			<path d="M121,79.9h-2.6v-0.6h5.8v0.6h-2.6v7.2H121V79.9z"/>
			<path d="M128.1,79.4h0.6v3.4h4.6v-3.4h0.6v7.7h-0.6v-3.8h-4.6v3.8h-0.6V79.4z"/>
			<path d="M143.3,83.3h-3.9v3.2h4.3l-0.1,0.5h-4.8v-7.7h4.7v0.6h-4.1v2.8h3.9V83.3z"/>
			<path d="M159.3,85c-0.4,1.2-1.3,2.1-2.9,2.1c-2.2,0-3.4-1.8-3.4-3.9c0-2.1,1.1-4,3.4-4c1.7,0,2.6,0.9,2.9,2.2h-0.6
				c-0.4-1-1-1.7-2.3-1.7c-1.9,0-2.7,1.7-2.7,3.4c0,1.7,0.8,3.4,2.8,3.4c1.3,0,1.9-0.6,2.3-1.6H159.3z"/>
			<path d="M164.2,79.4v7.7h-0.6v-7.7H164.2z"/>
			<path d="M170.7,79.9h-2.6v-0.6h5.8v0.6h-2.6v7.2h-0.6V79.9z"/>
			<path d="M179.4,87.1v-2.9c0-0.1,0-0.1,0-0.2l-2.8-4.6h0.7c0.8,1.3,2.1,3.6,2.4,4.2c0.3-0.6,1.7-2.8,2.5-4.2h0.7l-2.9,4.7
				c0,0,0,0.1,0,0.2v2.9H179.4z"/>
			<path d="M192.3,79.4h4.7v0.6h-4.1v2.9h3.8v0.5h-3.8v3.7h-0.6V79.4z"/>
			<path d="M201.7,83.5v3.6h-0.6v-7.7h2.8c1.5,0,2.3,0.8,2.3,2c0,1-0.6,1.6-1.4,1.8c0.8,0.2,1.3,0.7,1.3,2v0.3c0,0.5,0,1.3,0.1,1.6
				h-0.6c-0.1-0.3-0.1-0.9-0.1-1.6v-0.2c0-1.3-0.4-1.8-1.8-1.8H201.7z M201.7,82.9h1.9c1.4,0,2-0.5,2-1.5c0-0.9-0.6-1.5-1.8-1.5h-2
				V82.9z"/>
			<path d="M217.2,83.2c0,2.1-1.1,4-3.5,4c-2.2,0-3.4-1.7-3.4-4c0-2.2,1.2-4,3.5-4C215.9,79.3,217.2,80.9,217.2,83.2z M210.9,83.2
				c0,1.8,1,3.4,2.8,3.4c2,0,2.8-1.6,2.8-3.5c0-1.8-0.9-3.4-2.8-3.4C211.7,79.8,210.9,81.4,210.9,83.2z"/>
			<path d="M228.2,83.5c0-1.5,0-2.9,0-3.7h0c-0.3,1-1.9,4.8-2.8,7.3h-0.6c-0.7-1.9-2.4-6.1-2.7-7.3h0c0.1,0.9,0.1,2.7,0.1,4v3.3
				h-0.6v-7.7h0.9c1.1,2.6,2.4,6.1,2.7,7h0c0.2-0.6,1.7-4.4,2.8-7h0.9v7.7h-0.6V83.5z"/>
			<path d="M239.3,79.4h2.6c2.1,0,3.6,1.5,3.6,3.8c0,2.3-1.4,3.9-3.6,3.9h-2.5V79.4z M239.9,86.5h1.9c2,0,3-1.4,3-3.3
				c0-1.7-0.9-3.3-3-3.3h-1.9V86.5z"/>
			<path d="M250.4,79.4v7.7h-0.6v-7.7H250.4z"/>
			<path d="M255.3,79.4h4.7v0.6h-4.1v2.9h3.8v0.5h-3.8v3.7h-0.6V79.4z"/>
			<path d="M264.1,79.4h4.7v0.6h-4.1v2.9h3.8v0.5h-3.8v3.7h-0.6V79.4z"/>
			<path d="M277.3,83.3h-3.9v3.2h4.3l-0.1,0.5h-4.8v-7.7h4.7v0.6h-4.1v2.8h3.9V83.3z"/>
			<path d="M282.6,83.5v3.6H282v-7.7h2.8c1.5,0,2.3,0.8,2.3,2c0,1-0.6,1.6-1.4,1.8c0.8,0.2,1.3,0.7,1.3,2v0.3c0,0.5,0,1.3,0.1,1.6
				h-0.6c-0.1-0.3-0.1-0.9-0.1-1.6v-0.2c0-1.3-0.4-1.8-1.8-1.8H282.6z M282.6,82.9h1.9c1.4,0,2-0.5,2-1.5c0-0.9-0.6-1.5-1.8-1.5h-2
				V82.9z"/>
			<path d="M296.1,83.3h-3.9v3.2h4.3l-0.1,0.5h-4.8v-7.7h4.7v0.6h-4.1v2.8h3.9V83.3z"/>
			<path d="M300.7,87.1v-7.7h0.9c1.2,1.8,4,6.2,4.5,7h0c-0.1-1.1-0.1-2.2-0.1-3.5v-3.5h0.6v7.7h-0.8c-1.1-1.8-4-6.3-4.6-7.1h0
				c0.1,1,0,2.1,0,3.5v3.6H300.7z"/>
			<path d="M313.1,79.9h-2.6v-0.6h5.8v0.6h-2.6v7.2h-0.6V79.9z"/>
			<path d="M327.7,87.1l-2.9-7.7h0.6l1.5,4c0.4,1.2,0.9,2.5,1.1,3.1h0c0.2-0.6,0.7-1.9,1.1-3.1l1.6-4.1h0.6l-3,7.7H327.7z"/>
			<path d="M335.9,79.4v7.7h-0.6v-7.7H335.9z"/>
			<path d="M345.3,83.3h-3.9v3.2h4.3l-0.1,0.5h-4.8v-7.7h4.7v0.6h-4.1v2.8h3.9V83.3z"/>
			<path d="M351.3,87.1l-2.1-7.7h0.6c0.5,1.8,1.7,6.1,1.9,7h0c0.1-0.7,1.4-5,1.9-7h0.7c0.5,1.9,1.7,6.4,1.9,7h0
				c0.2-1.1,1.5-5.2,2.1-7h0.6l-2.4,7.7h-0.7c-0.5-1.8-1.7-6.3-1.8-6.9h0c-0.2,1-1.4,5-1.9,6.9H351.3z"/>
		</g>
	</g>
</g>
</svg>
